<mxfile host="app.diagrams.net" modified="2023-11-21T22:42:39.196Z" agent="Mozilla/5.0 (Macintosh; Intel Mac OS X 10_15_7) AppleWebKit/537.36 (KHTML, like Gecko) Chrome/118.0.0.0 Safari/537.36" etag="OFlzGVk7x19Ev_g5VxcB" version="22.1.3" type="github">
  <diagram name="Page-1" id="T_QSO0PRomUy-8l2R-P8">
    <mxGraphModel dx="2924" dy="2147" grid="1" gridSize="10" guides="1" tooltips="1" connect="1" arrows="1" fold="1" page="1" pageScale="1" pageWidth="850" pageHeight="1100" math="0" shadow="0">
      <root>
        <mxCell id="0" />
        <mxCell id="1" parent="0" />
        <mxCell id="ahb_mKAMQZ7S74Wd11Pm-1" value="" style="whiteSpace=wrap;html=1;aspect=fixed;" vertex="1" parent="1">
          <mxGeometry x="-480" y="-370" width="1360" height="1360" as="geometry" />
        </mxCell>
        <mxCell id="ahb_mKAMQZ7S74Wd11Pm-2" value="Dropdown of material" style="rounded=0;whiteSpace=wrap;html=1;" vertex="1" parent="1">
          <mxGeometry x="-190" y="-295" width="280" height="35" as="geometry" />
        </mxCell>
        <mxCell id="ahb_mKAMQZ7S74Wd11Pm-3" value="Material&lt;br&gt;" style="text;html=1;strokeColor=none;fillColor=none;align=center;verticalAlign=middle;whiteSpace=wrap;rounded=0;" vertex="1" parent="1">
          <mxGeometry x="-340" y="-290" width="110" height="30" as="geometry" />
        </mxCell>
        <mxCell id="ahb_mKAMQZ7S74Wd11Pm-4" value="Total Count" style="text;html=1;strokeColor=none;fillColor=none;align=center;verticalAlign=middle;whiteSpace=wrap;rounded=0;" vertex="1" parent="1">
          <mxGeometry x="190" y="-290" width="150" height="30" as="geometry" />
        </mxCell>
        <mxCell id="ahb_mKAMQZ7S74Wd11Pm-5" value="10000" style="text;html=1;strokeColor=none;fillColor=none;align=center;verticalAlign=middle;whiteSpace=wrap;rounded=0;" vertex="1" parent="1">
          <mxGeometry x="390" y="-295" width="60" height="30" as="geometry" />
        </mxCell>
        <mxCell id="ahb_mKAMQZ7S74Wd11Pm-7" value="" style="shape=table;startSize=0;container=1;collapsible=0;childLayout=tableLayout;fontSize=16;" vertex="1" parent="1">
          <mxGeometry x="-20" y="40" width="530" height="120" as="geometry" />
        </mxCell>
        <mxCell id="ahb_mKAMQZ7S74Wd11Pm-8" value="" style="shape=tableRow;horizontal=0;startSize=0;swimlaneHead=0;swimlaneBody=0;strokeColor=inherit;top=0;left=0;bottom=0;right=0;collapsible=0;dropTarget=0;fillColor=none;points=[[0,0.5],[1,0.5]];portConstraint=eastwest;fontSize=16;" vertex="1" parent="ahb_mKAMQZ7S74Wd11Pm-7">
          <mxGeometry width="530" height="40" as="geometry" />
        </mxCell>
        <mxCell id="ahb_mKAMQZ7S74Wd11Pm-9" value="Equpipment&lt;span style=&quot;white-space: pre;&quot;&gt;&#x9;&lt;/span&gt;" style="shape=partialRectangle;html=1;whiteSpace=wrap;connectable=0;strokeColor=inherit;overflow=hidden;fillColor=none;top=0;left=0;bottom=0;right=0;pointerEvents=1;fontSize=16;" vertex="1" parent="ahb_mKAMQZ7S74Wd11Pm-8">
          <mxGeometry width="177" height="40" as="geometry">
            <mxRectangle width="177" height="40" as="alternateBounds" />
          </mxGeometry>
        </mxCell>
        <mxCell id="ahb_mKAMQZ7S74Wd11Pm-10" value="Module" style="shape=partialRectangle;html=1;whiteSpace=wrap;connectable=0;strokeColor=inherit;overflow=hidden;fillColor=none;top=0;left=0;bottom=0;right=0;pointerEvents=1;fontSize=16;" vertex="1" parent="ahb_mKAMQZ7S74Wd11Pm-8">
          <mxGeometry x="177" width="176" height="40" as="geometry">
            <mxRectangle width="176" height="40" as="alternateBounds" />
          </mxGeometry>
        </mxCell>
        <mxCell id="ahb_mKAMQZ7S74Wd11Pm-11" value="Count" style="shape=partialRectangle;html=1;whiteSpace=wrap;connectable=0;strokeColor=inherit;overflow=hidden;fillColor=none;top=0;left=0;bottom=0;right=0;pointerEvents=1;fontSize=16;" vertex="1" parent="ahb_mKAMQZ7S74Wd11Pm-8">
          <mxGeometry x="353" width="177" height="40" as="geometry">
            <mxRectangle width="177" height="40" as="alternateBounds" />
          </mxGeometry>
        </mxCell>
        <mxCell id="ahb_mKAMQZ7S74Wd11Pm-12" value="" style="shape=tableRow;horizontal=0;startSize=0;swimlaneHead=0;swimlaneBody=0;strokeColor=inherit;top=0;left=0;bottom=0;right=0;collapsible=0;dropTarget=0;fillColor=none;points=[[0,0.5],[1,0.5]];portConstraint=eastwest;fontSize=16;" vertex="1" parent="ahb_mKAMQZ7S74Wd11Pm-7">
          <mxGeometry y="40" width="530" height="40" as="geometry" />
        </mxCell>
        <mxCell id="ahb_mKAMQZ7S74Wd11Pm-13" value="DES114" style="shape=partialRectangle;html=1;whiteSpace=wrap;connectable=0;strokeColor=inherit;overflow=hidden;fillColor=none;top=0;left=0;bottom=0;right=0;pointerEvents=1;fontSize=16;" vertex="1" parent="ahb_mKAMQZ7S74Wd11Pm-12">
          <mxGeometry width="177" height="40" as="geometry">
            <mxRectangle width="177" height="40" as="alternateBounds" />
          </mxGeometry>
        </mxCell>
        <mxCell id="ahb_mKAMQZ7S74Wd11Pm-14" value="E40 SA" style="shape=partialRectangle;html=1;whiteSpace=wrap;connectable=0;strokeColor=inherit;overflow=hidden;fillColor=none;top=0;left=0;bottom=0;right=0;pointerEvents=1;fontSize=16;" vertex="1" parent="ahb_mKAMQZ7S74Wd11Pm-12">
          <mxGeometry x="177" width="176" height="40" as="geometry">
            <mxRectangle width="176" height="40" as="alternateBounds" />
          </mxGeometry>
        </mxCell>
        <mxCell id="ahb_mKAMQZ7S74Wd11Pm-15" value="500" style="shape=partialRectangle;html=1;whiteSpace=wrap;connectable=0;strokeColor=inherit;overflow=hidden;fillColor=none;top=0;left=0;bottom=0;right=0;pointerEvents=1;fontSize=16;" vertex="1" parent="ahb_mKAMQZ7S74Wd11Pm-12">
          <mxGeometry x="353" width="177" height="40" as="geometry">
            <mxRectangle width="177" height="40" as="alternateBounds" />
          </mxGeometry>
        </mxCell>
        <mxCell id="ahb_mKAMQZ7S74Wd11Pm-16" value="" style="shape=tableRow;horizontal=0;startSize=0;swimlaneHead=0;swimlaneBody=0;strokeColor=inherit;top=0;left=0;bottom=0;right=0;collapsible=0;dropTarget=0;fillColor=none;points=[[0,0.5],[1,0.5]];portConstraint=eastwest;fontSize=16;" vertex="1" parent="ahb_mKAMQZ7S74Wd11Pm-7">
          <mxGeometry y="80" width="530" height="40" as="geometry" />
        </mxCell>
        <mxCell id="ahb_mKAMQZ7S74Wd11Pm-17" value="FANUC" style="shape=partialRectangle;html=1;whiteSpace=wrap;connectable=0;strokeColor=inherit;overflow=hidden;fillColor=none;top=0;left=0;bottom=0;right=0;pointerEvents=1;fontSize=16;" vertex="1" parent="ahb_mKAMQZ7S74Wd11Pm-16">
          <mxGeometry width="177" height="40" as="geometry">
            <mxRectangle width="177" height="40" as="alternateBounds" />
          </mxGeometry>
        </mxCell>
        <mxCell id="ahb_mKAMQZ7S74Wd11Pm-18" value="E41 Cell Join" style="shape=partialRectangle;html=1;whiteSpace=wrap;connectable=0;strokeColor=inherit;overflow=hidden;fillColor=none;top=0;left=0;bottom=0;right=0;pointerEvents=1;fontSize=16;" vertex="1" parent="ahb_mKAMQZ7S74Wd11Pm-16">
          <mxGeometry x="177" width="176" height="40" as="geometry">
            <mxRectangle width="176" height="40" as="alternateBounds" />
          </mxGeometry>
        </mxCell>
        <mxCell id="ahb_mKAMQZ7S74Wd11Pm-19" value="1000" style="shape=partialRectangle;html=1;whiteSpace=wrap;connectable=0;strokeColor=inherit;overflow=hidden;fillColor=none;top=0;left=0;bottom=0;right=0;pointerEvents=1;fontSize=16;" vertex="1" parent="ahb_mKAMQZ7S74Wd11Pm-16">
          <mxGeometry x="353" width="177" height="40" as="geometry">
            <mxRectangle width="177" height="40" as="alternateBounds" />
          </mxGeometry>
        </mxCell>
      </root>
    </mxGraphModel>
  </diagram>
</mxfile>
